<?xml version="1.0" standalone="no"?>
<!DOCTYPE svg PUBLIC "-//W3C//DTD SVG 1.0//EN" "http://www.w3.org/TR/2001/REC-SVG-20010904/DTD/svg10.dtd">
<svg xmlns="http://www.w3.org/2000/svg" xmlns:xlink="http://www.w3.org/1999/xlink" id="body_1" width="18" height="18">

<g transform="matrix(1.3333334 0 0 1.3333334 0 0)">
	<path  d="M0 0L13.5 0L13.5 13.5L0 13.5z" stroke="none"  fill="#FFFFFF" fill-rule="evenodd" />
	<g transform="matrix(1 0 0 1 0 0)">
		<g transform="matrix(0.75 0 0 0.75 0 0)">
			<g>
				<path  d="M0 0C 5.941406 0 11.878906 0 18 0C 18 5.941406 18 11.878906 18 18C 12.058594 18 6.121094 18 0 18C 0 12.058594 0 6.121094 0 0z" stroke="none"  fill="#0F9D58" fill-rule="nonzero" />
				<path  d="M7.871094 5.9375C 8.589844 6.339844 9.292969 6.789062 9.898438 7.351562C 9.898438 7.800781 9.898438 7.800781 9.636719 8.0625C 9.300781 8.25 9.300781 8.25 9.019531 8.214844C 8.640625 8.078125 8.363281 7.890625 8.035156 7.660156C 7.128906 7.019531 6.355469 6.75 5.25 6.898438C 4.660156 7.101562 4.277344 7.394531 3.910156 7.902344C 3.707031 8.535156 3.652344 9.09375 3.75 9.75C 3.953125 10.109375 3.953125 10.109375 4.199219 10.351562C 4.199219 10.449219 4.199219 10.546875 4.199219 10.648438C 4.316406 10.695312 4.433594 10.742188 4.554688 10.789062C 4.949219 10.949219 4.949219 10.949219 5.25 11.101562C 6.375 11.242188 7.171875 10.980469 8.0625 10.300781C 9.097656 9.359375 9.789062 8.046875 10.492188 6.851562C 10.582031 6.703125 10.671875 6.554688 10.761719 6.402344C 10.878906 6.203125 10.878906 6.203125 10.996094 6C 11.3125 5.625 11.523438 5.625 12 5.550781C 12.777344 6.796875 13.539062 8.054688 14.261719 9.335938C 14.359375 9.515625 14.464844 9.691406 14.566406 9.871094C 14.71875 10.132812 14.867188 10.394531 15.015625 10.660156C 15.144531 10.890625 15.144531 10.890625 15.28125 11.125C 15.46875 11.601562 15.453125 11.820312 15.300781 12.300781C 14.980469 12.414062 14.980469 12.414062 14.550781 12.449219C 14.214844 12.242188 13.945312 12.046875 13.648438 11.792969C 13.480469 11.65625 13.308594 11.515625 13.136719 11.378906C 13.050781 11.304688 12.960938 11.234375 12.871094 11.164062C 12.277344 10.695312 11.636719 10.289062 11.007812 9.871094C 10.890625 9.78125 10.773438 9.691406 10.648438 9.601562C 10.648438 9.300781 10.648438 9.300781 10.894531 9.046875C 11.25 8.851562 11.25 8.851562 11.691406 8.859375C 12.148438 9 12.148438 9 12.898438 9.601562C 12.304688 8.558594 12.304688 8.558594 11.699219 7.5C 11.546875 7.714844 11.398438 7.933594 11.242188 8.15625C 11.144531 8.292969 11.046875 8.429688 10.949219 8.570312C 10.757812 8.84375 10.574219 9.117188 10.390625 9.390625C 9.488281 10.730469 8.5 11.960938 6.898438 12.449219C 5.882812 12.589844 4.90625 12.585938 4.007812 12.050781C 3.125 11.363281 2.5 10.492188 2.347656 9.363281C 2.292969 8.316406 2.511719 7.582031 3.148438 6.75C 4.445312 5.359375 6.171875 5.167969 7.871094 5.9375z" stroke="none"  fill="#F7FCF9" fill-rule="nonzero" />
				<path  d="M11.550781 7.351562C 11.945312 7.710938 12.203125 8.101562 12.476562 8.558594C 12.558594 8.691406 12.636719 8.824219 12.71875 8.957031C 12.898438 9.300781 12.898438 9.300781 12.898438 9.601562C 12.527344 9.417969 12.199219 9.230469 11.851562 9C 11.175781 9.035156 10.738281 9.363281 10.199219 9.75C 10.414062 9.15625 10.699219 8.65625 11.042969 8.128906C 11.136719 7.980469 11.234375 7.835938 11.332031 7.683594C 11.4375 7.519531 11.4375 7.519531 11.550781 7.351562z" stroke="none"  fill="#22A465" fill-rule="nonzero" />
			</g>
		</g>
	</g>
</g>
</svg>
